<svg xmlns="http://www.w3.org/2000/svg" width="666.667" height="426.667"><defs><linearGradient id="c" x1="0" x2="1" y1="0" y2="0" gradientTransform="scale(207.11313 -207.11313) rotate(-89.375 -.165 -.278)" gradientUnits="userSpaceOnUse" spreadMethod="pad"><stop offset="0" style="stop-opacity:1;stop-color:#8a4f9f"/><stop offset=".036" style="stop-opacity:1;stop-color:#8a4f9f"/><stop offset="1" style="stop-opacity:1;stop-color:#332f8f"/></linearGradient><linearGradient id="d" x1="0" x2="1" y1="0" y2="0" gradientTransform="scale(-195.72573 195.72573) rotate(77.782 -.513 -.339)" gradientUnits="userSpaceOnUse" spreadMethod="pad"><stop offset="0" style="stop-opacity:1;stop-color:#455daa"/><stop offset="1" style="stop-opacity:1;stop-color:#64c5b7"/></linearGradient><linearGradient id="a" x1="0" x2="1" y1="0" y2="0" gradientTransform="scale(-115.98157 115.98157) rotate(89.752 -.405 -.118)" gradientUnits="userSpaceOnUse" spreadMethod="pad"><stop offset="0" style="stop-opacity:1;stop-color:#fff"/><stop offset="1" style="stop-opacity:0;stop-color:#fff"/></linearGradient><linearGradient id="g" x1="0" x2="1" y1="0" y2="0" gradientTransform="scale(-115.98157 115.98157) rotate(89.752 -.405 -.118)" gradientUnits="userSpaceOnUse" spreadMethod="pad"><stop offset="0" style="stop-opacity:1;stop-color:#8a4f9f"/><stop offset="1" style="stop-opacity:1;stop-color:#8a4f9f"/></linearGradient><linearGradient id="i" x1="0" x2="1" y1="0" y2="0" gradientTransform="matrix(0 214.63585 214.63585 0 42.5 40.642)" gradientUnits="userSpaceOnUse" spreadMethod="pad"><stop offset="0" style="stop-opacity:1;stop-color:#455daa"/><stop offset="1" style="stop-opacity:1;stop-color:#64c5b7"/></linearGradient><clipPath id="b" clipPathUnits="userSpaceOnUse"><path d="M0 320h500V0H0Z"/></clipPath><clipPath id="e" clipPathUnits="userSpaceOnUse"><path d="M53.844 47.935c0-1.666.856-3.097 2.11-3.952a4.764 4.764 0 0 1 3.406-.752l7.154 1.12v119.361l-7.154-1.122a4.77 4.77 0 0 0-3.406.753 4.753 4.753 0 0 0-2.11 3.953z"/></clipPath><clipPath id="h" clipPathUnits="userSpaceOnUse"><path d="M0 320h500V0H0Z"/></clipPath><mask id="f" width="1" height="1" x="0" y="0" maskUnits="userSpaceOnUse"><path d="M-32768 32767h65535v-65535h-65535Z" style="fill:url(#a);stroke:none"/></mask></defs><g clip-path="url(#b)" transform="matrix(1.33333 0 0 -1.33333 0 426.667)"><path d="M0 0v-199.578a4.77 4.77 0 0 0-4.025-4.71l-6.536-1.028v133.288a54.88 54.88 0 0 1-1.613 13.297c-.065.266-.13.526-.201.78a52.628 52.628 0 0 1-1.188 3.901c-.077.218-.154.437-.236.655a41.558 41.558 0 0 1-.715 1.856c-.077.201-.16.396-.249.585a38.815 38.815 0 0 1-.815 1.838c-.171.367-.349.733-.532 1.093-.171.349-.355.698-.538 1.046-.006.012-.012.024-.023.042-.184.349-.373.691-.568 1.034-.189.343-.39.691-.597 1.028a27.65 27.65 0 0 1-.608.999 47.225 47.225 0 0 1-3.392 4.71c-.19.231-.379.455-.574.68-.177.213-.366.425-.549.632a36.814 36.814 0 0 1-1.466 1.566c-.177.183-.36.367-.544.55l-.017.018c-.213.206-.432.413-.65.62a36.816 36.816 0 0 1-1.856 1.643 25.302 25.302 0 0 1-.91.739 43.254 43.254 0 0 1-1.755 1.3c-.302.218-.609.425-.922.626-.308.207-.621.408-.934.597-.319.201-.632.39-.952.567-.33.195-.661.379-.998.556-.337.183-.674.36-1.011.526A29.92 29.92 0 0 1-36.12-28c-.302.141-.609.277-.916.402a23.08 23.08 0 0 1-1.035.419c-.005 0-.011.006-.017.006-.343.136-.686.26-1.029.372-.242.095-.49.178-.738.254-.189.065-.379.125-.562.178-.319.1-.644.195-.969.277-.295.089-.591.166-.892.231-.101.03-.213.059-.325.077-.314.083-.627.148-.94.213-.372.076-.745.147-1.123.212-.331.059-.662.113-.999.154a31.04 31.04 0 0 1-2.688.272l-.621.035-.532.018c-.307.006-.614.012-.928.012-.431 0-.857-.006-1.282-.03-.201 0-.402-.012-.597-.023a6.795 6.795 0 0 1-.36-.024c-.243-.012-.491-.03-.733-.053-.361-.03-.721-.065-1.076-.113a4.506 4.506 0 0 1-.414-.053c-.23-.023-.455-.059-.685-.094a17.794 17.794 0 0 1-.745-.124c-.153-.024-.307-.054-.461-.083a31.322 31.322 0 0 1-2.145-.479 30.103 30.103 0 0 1-1.779-.508 28.796 28.796 0 0 1-2.24-.792c-.242-.089-.484-.189-.726-.289a39.957 39.957 0 0 1-2.211-1.011c-.189-.095-.378-.183-.555-.284a30.167 30.167 0 0 1-.952-.514 30.705 30.705 0 0 1-1.944-1.158 15.11 15.11 0 0 1-.65-.426 14.638 14.638 0 0 1-.668-.455 30.082 30.082 0 0 1-1.873-1.394c-.042-.03-.083-.065-.13-.101a14.15 14.15 0 0 1-.562-.461 12.838 12.838 0 0 1-.62-.52c-.254-.219-.508-.437-.757-.662v-.006c-.502-.443-.992-.91-1.471-1.388a19.88 19.88 0 0 1-.609-.621 20.776 20.776 0 0 1-.502-.526 14.96 14.96 0 0 1-.514-.561 39.381 39.381 0 0 1-1.218-1.407 46.454 46.454 0 0 1-5.36-8.067 20.987 20.987 0 0 1-.502-.963c-2.364-4.722-5.532-12.995-5.532-17.936v-151.88l-7.156-1.123a4.756 4.756 0 0 0-3.404.75 4.753 4.753 0 0 0-2.11 3.96V14.887a4.768 4.768 0 0 0 5.519 4.71l7.151-1.141L-10.561 5.75l6.548-1.04A4.774 4.774 0 0 0 0 0" style="fill:#342f8f;fill-opacity:1;fill-rule:nonzero;stroke:none" transform="translate(156.822 262.229)"/></g><path d="M18.819 242.978V98.026c0-1.06.536-1.973 1.34-2.509a2.97 2.97 0 0 1 2.157-.475l4.518.706v96.078c0 3.13 2.011 8.357 3.497 11.341.341.682.706 1.34 1.084 1.986v39.359l-4.581.731-4.518.719a3.016 3.016 0 0 1-3.497-2.984" style="fill:url(#c);stroke:none" transform="matrix(1.33333 0 0 -1.33333 0 426.667)"/><path d="M102.892 230.884c-.19 0-.379-.011-.564-.022-.117-.006-.227-.011-.339-.023a15.925 15.925 0 0 1-.691-.049c-.34-.028-.68-.061-1.014-.106a4.314 4.314 0 0 1-.389-.051c-.218-.021-.43-.056-.647-.089a14.265 14.265 0 0 1-.702-.117 29.822 29.822 0 0 1-1.966-.406 12.14 12.14 0 0 1-.491-.123 29.15 29.15 0 0 1-1.676-.479 41.27 41.27 0 0 1-1.415-.479l-.697-.267c-.227-.089-.456-.178-.685-.274a36.438 36.438 0 0 1-2.083-.952c-.178-.089-.351-.178-.524-.267a38.866 38.866 0 0 1-2.695-1.554 38.06 38.06 0 0 1-3.042-2.168c-.039-.028-.078-.061-.123-.094-.178-.145-.351-.285-.529-.435-.195-.161-.39-.323-.585-.49-.239-.206-.479-.412-.713-.624v-.005a31.016 31.016 0 0 1-1.387-1.309c-.195-.19-.384-.384-.574-.585a20.095 20.095 0 0 1-.473-.496 50.773 50.773 0 0 1-.484-.529 36.615 36.615 0 0 1-1.148-1.326 35.366 35.366 0 0 0 4.066 2.078 32.99 32.99 0 0 0 5.855 1.888c2.256.502 4.59.764 6.968.764 10.306 0 19.637-4.903 26.422-12.841 4.646-5.431 8.099-12.283 9.854-19.959a51.765 51.765 0 0 0 1.309-11.653V67.778l9.954-6.957v125.638c0 4.033-.451 7.938-1.308 11.654-.068.295-.14.59-.213.88-.061.251-.122.496-.189.735a49.407 49.407 0 0 1-1.119 3.677c-.072.206-.145.412-.223.618-.212.59-.434 1.17-.675 1.749-.072.189-.15.373-.234.551a36.874 36.874 0 0 1-.768 1.733 34.94 34.94 0 0 1-.501 1.03c-.162.33-.334.658-.507.987-.006.01-.011.022-.023.038-.172.329-.351.652-.534.975-.178.323-.367.653-.563.969-.189.318-.379.63-.574.942a44.742 44.742 0 0 1-2.551 3.632c-.212.273-.429.546-.646.807-.178.218-.356.43-.541.641a35.718 35.718 0 0 1-1.899 2.073c-.167.173-.34.345-.513.517l-.016.018c-.201.195-.407.389-.613.585-.312.295-.63.585-.953.868a43.19 43.19 0 0 1-.796.68c-.251.212-.502.413-.752.612a33.855 33.855 0 0 1-.813.625 37.088 37.088 0 0 1-1.817 1.275c-.289.189-.585.379-.88.563-.295.183-.596.362-.896.534-.313.179-.624.357-.942.524-.312.173-.63.334-.953.496-.356.178-.718.351-1.08.512-.284.134-.574.257-.864.379-.323.14-.651.267-.974.396-.006 0-.011.006-.017.006-.323.122-.646.244-.969.35-.229.09-.463.168-.697.24-.178.061-.356.117-.529.167-.3.095-.607.184-.913.262-.279.078-.557.156-.842.217-.094.028-.2.056-.306.072-.295.078-.59.14-.885.201a35.84 35.84 0 0 1-1.059.201c-.312.055-.63.106-.941.144-.836.123-1.683.207-2.535.257l-.585.033a35.893 35.893 0 0 1-1.376.028c-.406 0-.808-.005-1.208-.028" style="fill:url(#d);stroke:none" transform="matrix(1.33333 0 0 -1.33333 0 426.667)"/><g clip-path="url(#e)" transform="matrix(1.33333 0 0 -1.33333 0 426.667)"><g mask="url(#f)"><path d="M53.844 47.935c0-1.666.856-3.097 2.11-3.952a4.764 4.764 0 0 1 3.406-.752l7.154 1.12v119.361l-7.154-1.122a4.77 4.77 0 0 0-3.406.753 4.753 4.753 0 0 0-2.11 3.953z" style="fill:url(#g);stroke:none"/></g></g><g clip-path="url(#h)" transform="matrix(1.33333 0 0 -1.33333 0 426.667)"><path d="M0 0c0 1.336.924 2.295 2.157 2.295 1.301 0 2.226-.959 2.226-2.295 0-1.3-.925-2.259-2.226-2.259C.924-2.259 0-1.3 0 0m3.801-16.639c-.035.239-.035.479-.035.753v5.752C2.499-9.381.924-8.936-.513-8.936c-2.671 0-4.759-1.986-4.759-4.485 0-2.5 2.088-4.485 4.759-4.485 1.369 0 2.841.41 4.314 1.267M-5.512 0c0 1.336.924 2.295 2.157 2.295 1.301 0 2.225-.959 2.225-2.295 0-1.3-.924-2.259-2.225-2.259-1.233 0-2.157.959-2.157 2.259m18.044-21.056c0-1.267-.206-2.089-.685-2.089h-.993c-2.808 0-4.725.822-5.855 2.431-1.78-.822-3.8-1.336-5.65-1.336-4.964 0-9.107 3.767-9.107 8.629 0 4.827 4.143 8.628 9.142 8.628 1.369 0 2.91-.274 4.382-.788v.719h4.486v-10.99c0-2.226.65-3.15 3.047-3.15h.548c.479 0 .685-.787.685-2.054" style="fill:#342f8f;fill-opacity:1;fill-rule:nonzero;stroke:none" transform="translate(204.834 229.027)"/><path d="M0 0c0-1.301-.924-2.26-2.226-2.26-1.232 0-2.157.959-2.157 2.26 0 1.335.925 2.294 2.157 2.294C-.924 2.294 0 1.335 0 0m-5.513 0c0-1.301-.924-2.26-2.225-2.26-1.232 0-2.157.959-2.157 2.26 0 1.335.925 2.294 2.157 2.294 1.301 0 2.225-.959 2.225-2.294m2.739 4.93h-8.114c-.48 0-.685.822-.685 2.089s.205 2.054.685 2.054h3.629v12.771h4.485z" style="fill:#342f8f;fill-opacity:1;fill-rule:nonzero;stroke:none" transform="translate(227.573 200.952)"/><path d="M0 0c2.739-.137 3.869.959 3.869 3.938v16.639h4.485V3.938c0-5-2.91-7.979-7.704-8.081z" style="fill:#342f8f;fill-opacity:1;fill-rule:nonzero;stroke:none" transform="translate(228.124 202.219)"/><path d="M0 0h3.561v8.662c-1.13.548-2.329.891-3.561.891-3.047 0-5.205-2.157-5.205-4.828C-5.205 2.054-3.047 0 0 0m12.497-2.054c0-1.267-.205-2.089-.685-2.089H8.046c-.103-4.93-3.184-7.807-8.012-7.841l-.65 4.211c2.841-.239 4.108.754 4.177 3.63H-.068c-5.273 0-9.622 3.835-9.622 8.868 0 5.032 4.349 8.97 9.622 8.97 2.533 0 5.546-.992 7.771-2.567l.343-.137V0h3.766c.48 0 .685-.788.685-2.054" style="fill:#342f8f;fill-opacity:1;fill-rule:nonzero;stroke:none" transform="translate(249.56 210.025)"/><path d="M0 0c0-1.267-.206-2.089-.685-2.089h-6.3c-.479 0-.685.822-.685 2.089s.206 2.054.685 2.054h6.3C-.206 2.054 0 1.267 0 0" style="fill:#342f8f;fill-opacity:1;fill-rule:nonzero;stroke:none" transform="translate(268.361 207.97)"/><path d="M0 0c0-1.267-.206-2.089-.685-2.089h-6.3c-.479 0-.685.822-.685 2.089s.206 2.054.685 2.054h6.3C-.206 2.054 0 1.267 0 0" style="fill:#342f8f;fill-opacity:1;fill-rule:nonzero;stroke:none" transform="translate(274.663 207.97)"/><path d="M0 0c0-1.267-.206-2.089-.685-2.089h-6.3c-.479 0-.685.822-.685 2.089s.206 2.054.685 2.054h6.3C-.206 2.054 0 1.267 0 0" style="fill:#342f8f;fill-opacity:1;fill-rule:nonzero;stroke:none" transform="translate(280.963 207.97)"/><path d="M0 0c0-1.267-.205-2.089-.684-2.089h-6.3c-.48 0-.686.822-.686 2.089s.206 2.054.686 2.054h6.3C-.205 2.054 0 1.267 0 0" style="fill:#342f8f;fill-opacity:1;fill-rule:nonzero;stroke:none" transform="translate(287.264 207.97)"/><path d="M0 0c0-1.267-.205-2.089-.684-2.089h-6.3c-.48 0-.686.822-.686 2.089s.206 2.054.686 2.054h6.3C-.205 2.054 0 1.267 0 0" style="fill:#342f8f;fill-opacity:1;fill-rule:nonzero;stroke:none" transform="translate(293.565 207.97)"/><path d="M0 0c0-1.267-.206-2.089-.685-2.089H-2.74c-2.02 0-3.629.548-4.827 1.575-1.165-1.061-2.877-1.575-5.136-1.575-2.26 0-3.938.548-5.17 1.541-1.165-1.027-2.842-1.541-5.102-1.541-2.259 0-3.938.548-5.17 1.541-1.164-1.027-2.91-1.541-5.238-1.541h-1.747c-.479 0-.685.822-.685 2.089s.206 2.054.685 2.054h1.335c2.499 0 3.15.89 3.15 3.151v6.231h4.486V5.17c0-.959-.069-1.815-.24-2.568.651-.376 1.507-.548 2.705-.548 2.671 0 3.355.788 3.355 3.151v7.943h4.452V5.17c0-.959-.069-1.815-.274-2.568.684-.376 1.54-.548 2.738-.548 2.671 0 3.356.788 3.356 3.151v9.655h4.451V5.17c0-.959-.068-1.815-.274-2.568.582-.376 1.267-.548 2.089-.548h3.116C-.206 2.054 0 1.267 0 0" style="fill:#342f8f;fill-opacity:1;fill-rule:nonzero;stroke:none" transform="translate(328.012 207.97)"/><path d="M0 0v-25.508h-7.156c-.479 0-.685.822-.685 2.089s.206 2.054.685 2.054h2.671V0z" style="fill:#342f8f;fill-opacity:1;fill-rule:nonzero;stroke:none" transform="translate(334.49 231.39)"/><path d="M340.107 231.39h4.452v-25.508h-4.452z" style="fill:#342f8f;fill-opacity:1;fill-rule:nonzero;stroke:none"/><path d="M0 0c0 1.335.924 2.294 2.157 2.294 1.301 0 2.226-.959 2.226-2.294 0-1.301-.925-2.26-2.226-2.26C.924-2.26 0-1.301 0 0m3.834-14.312c0 2.637-2.397 5.41-4.417 5.41s-4.416-2.773-4.416-5.41c0-2.533 1.814-4.28 4.416-4.28 2.603 0 4.417 1.747 4.417 4.28M-5.513 0c0 1.335.925 2.294 2.157 2.294 1.301 0 2.226-.959 2.226-2.294 0-1.301-.925-2.26-2.226-2.26-1.232 0-2.157.959-2.157 2.26m-3.972-14.312c0 5.067 4.417 9.552 8.902 9.552 4.486 0 8.902-4.485 8.902-9.552 0-4.724-3.8-8.423-8.902-8.423-5.101 0-8.902 3.699-8.902 8.423" style="fill:#342f8f;fill-opacity:1;fill-rule:nonzero;stroke:none" transform="translate(367.605 228.617)"/><path d="M0 0c2.74-.137 3.87.959 3.87 3.938v16.639h4.485V3.938c0-5-2.91-7.979-7.704-8.081z" style="fill:#342f8f;fill-opacity:1;fill-rule:nonzero;stroke:none" transform="translate(377.264 202.219)"/><path d="M0 0c-3.32-1.438-7.395-2.226-11.812-2.226a33.69 33.69 0 0 0-6.643.651v4.28c2.192-.548 4.246-.787 6.678-.787 2.567 0 4.862.308 7.018.89-1.027 5.58-4.486 9.929-10.066 11.162l.959 4.04C-5.512 16.161-.239 9.279 0 0" style="fill:#342f8f;fill-opacity:1;fill-rule:nonzero;stroke:none" transform="translate(407.464 208.107)"/><path d="M0 0c0-1.267-.206-2.089-.685-2.089h-8.457v25.508h4.451V2.054h4.006C-.206 2.054 0 1.267 0 0" style="fill:#342f8f;fill-opacity:1;fill-rule:nonzero;stroke:none" transform="translate(421.234 207.97)"/><path d="M0 0c0-1.472-1.061-2.567-2.499-2.567-1.404 0-2.465 1.095-2.465 2.567 0 1.507 1.061 2.568 2.465 2.568C-1.061 2.568 0 1.507 0 0m5.41 7.396c0-1.267-.205-2.089-.685-2.089H2.877c-2.02 0-3.63.548-4.863 1.575-1.13-1.061-2.807-1.575-5.067-1.575h-1.986c-.479 0-.685.822-.685 2.089s.206 2.054.685 2.054h1.541c2.362 0 3.048.925 3.048 3.151v9.62H0v-9.655c0-.959-.102-1.815-.274-2.568.582-.376 1.267-.548 2.123-.548h2.876c.48 0 .685-.787.685-2.054" style="fill:#342f8f;fill-opacity:1;fill-rule:nonzero;stroke:none" transform="translate(429.59 200.575)"/><path d="M0 0c1.679 0 3.595.308 5.478.855C4.897 5.854 2.02 9.998-.684 9.998c-3.356 0-3.458-6.54-3.801-8.937C-2.91.308-1.575 0 0 0m15.1-2.054c0-1.267-.206-2.089-.685-2.089h-.274c-2.226 0-4.005.582-5.341 1.678C5.719-3.63 2.363-4.143-.033-4.143c-1.85 0-4.007.308-6.472 1.438-1.096-.925-2.534-1.438-4.315-1.438h-1.026c-.48 0-.686.822-.686 2.089 0 1.266.206 2.054.686 2.054h.479c1.404 0 2.191.651 2.431 2.122.342 1.918.719 12.052 8.046 12.052 5.307 0 9.895-5.341 10.82-12.599C10.512.514 11.539 0 13.148 0h1.267c.479 0 .685-.788.685-2.054" style="fill:#342f8f;fill-opacity:1;fill-rule:nonzero;stroke:none" transform="translate(446.164 210.025)"/><path d="M0 0v-25.508h-7.156c-.479 0-.685.822-.685 2.089s.206 2.054.685 2.054h2.671V0z" style="fill:#342f8f;fill-opacity:1;fill-rule:nonzero;stroke:none" transform="translate(467.74 231.39)"/><path d="M473.356 231.39h4.452v-25.508h-4.452z" style="fill:#342f8f;fill-opacity:1;fill-rule:nonzero;stroke:none"/><path d="M0 0c0 1.336.924 2.295 2.157 2.295 1.301 0 2.226-.959 2.226-2.295 0-1.3-.925-2.259-2.226-2.259C.924-2.259 0-1.3 0 0m3.801-16.639c-.035.239-.035.479-.035.753v5.752C2.499-9.381.924-8.936-.513-8.936c-2.671 0-4.76-1.986-4.76-4.485 0-2.5 2.089-4.485 4.76-4.485 1.369 0 2.841.41 4.314 1.267M-5.512 0c0 1.336.924 2.295 2.157 2.295 1.301 0 2.225-.959 2.225-2.295 0-1.3-.924-2.259-2.225-2.259-1.233 0-2.157.959-2.157 2.259m18.044-21.056c0-1.267-.206-2.089-.685-2.089h-.993c-2.808 0-4.725.822-5.855 2.431-1.78-.822-3.8-1.336-5.65-1.336-4.964 0-9.107 3.767-9.107 8.629 0 4.827 4.143 8.628 9.142 8.628 1.37 0 2.91-.274 4.382-.788v.719h4.486v-10.99c0-2.226.65-3.15 3.047-3.15h.548c.479 0 .685-.787.685-2.054" style="fill:#342f8f;fill-opacity:1;fill-rule:nonzero;stroke:none" transform="translate(203.053 181.886)"/><path d="M0 0c0-1.301-.924-2.26-2.226-2.26-1.232 0-2.157.959-2.157 2.26 0 1.335.925 2.294 2.157 2.294C-.924 2.294 0 1.335 0 0m-5.513 0c0-1.301-.924-2.26-2.225-2.26-1.232 0-2.157.959-2.157 2.26 0 1.335.925 2.294 2.157 2.294 1.301 0 2.225-.959 2.225-2.294m8.149 7.019c0-1.267-.205-2.089-.684-2.089H.103c-2.02 0-3.63.548-4.862 1.575-1.13-1.061-2.808-1.575-5.067-1.575h-1.986c-.48 0-.685.822-.685 2.089s.205 2.054.685 2.054h1.54c2.363 0 3.047.925 3.047 3.15v9.621h4.452v-9.655c0-.959-.103-1.815-.274-2.568.582-.376 1.267-.548 2.123-.548h2.876c.479 0 .684-.787.684-2.054" style="fill:#342f8f;fill-opacity:1;fill-rule:nonzero;stroke:none" transform="translate(226.716 153.81)"/><path d="M0 0c1.677 0 3.595.308 5.478.855C4.896 5.854 2.02 9.998-.685 9.998c-3.356 0-3.458-6.54-3.8-8.937C-2.91.308-1.575 0 0 0m15.099-2.054c0-1.267-.205-2.089-.685-2.089h-.273c-2.226 0-4.007.582-5.342 1.678C5.718-3.63 2.362-4.143-.035-4.143c-1.848 0-4.006.308-6.47 1.438-1.096-.925-2.534-1.438-4.315-1.438h-1.027c-.479 0-.685.822-.685 2.089 0 1.266.206 2.054.685 2.054h.48c1.403 0 2.191.651 2.431 2.122.342 1.918.719 12.052 8.046 12.052 5.307 0 9.895-5.341 10.819-12.599C10.511.514 11.538 0 13.148 0h1.266c.48 0 .685-.788.685-2.054" style="fill:#342f8f;fill-opacity:1;fill-rule:nonzero;stroke:none" transform="translate(240.518 162.884)"/><path d="M0 0c0 1.507 1.062 2.568 2.466 2.568 1.438 0 2.499-1.061 2.499-2.568 0-1.472-1.061-2.567-2.499-2.567C1.062-2.567 0-1.472 0 0m10.101-19.789c0-1.267-.206-2.089-.685-2.089H7.567c-2.02 0-3.629.548-4.862 1.575-1.13-1.062-2.807-1.575-5.067-1.575h-1.986c-.48 0-.685.822-.685 2.089 0 1.266.205 2.054.685 2.054h1.54c2.363 0 3.048.924 3.048 3.15v9.621h4.451v-9.655c0-.959-.103-1.816-.274-2.569.582-.376 1.267-.547 2.123-.547h2.876c.479 0 .685-.788.685-2.054" style="fill:#342f8f;fill-opacity:1;fill-rule:nonzero;stroke:none" transform="translate(259.285 180.619)"/><path d="M0 0c0 1.336.924 2.295 2.157 2.295 1.301 0 2.226-.959 2.226-2.295 0-1.3-.925-2.259-2.226-2.259C.924-2.259 0-1.3 0 0m-5.513 0c0 1.336.925 2.295 2.157 2.295 1.301 0 2.226-.959 2.226-2.295 0-1.3-.925-2.259-2.226-2.259-1.232 0-2.157.959-2.157 2.259M7.053-19.516c0-1.267-.205-2.089-.685-2.089H4.519c-2.02 0-3.629.549-4.862 1.575-1.13-1.061-2.807-1.575-5.067-1.575h-1.986c-.479 0-.685.822-.685 2.089s.206 2.055.685 2.055h1.541c2.362 0 3.047.924 3.047 3.15v9.62h4.451v-9.655c0-.959-.102-1.815-.274-2.568.582-.376 1.267-.547 2.123-.547h2.876c.48 0 .685-.788.685-2.055" style="fill:#342f8f;fill-opacity:1;fill-rule:nonzero;stroke:none" transform="translate(276.1 180.345)"/><path d="M0 0v-25.508h-7.156c-.479 0-.685.822-.685 2.089s.206 2.054.685 2.054h2.671V0z" style="fill:#342f8f;fill-opacity:1;fill-rule:nonzero;stroke:none" transform="translate(289.626 184.248)"/><path d="M295.244 184.248h4.452V158.74h-4.452z" style="fill:#342f8f;fill-opacity:1;fill-rule:nonzero;stroke:none"/><path d="M0 0v7.84c-1.13.514-2.329.891-3.527.891-3.15 0-5.238-2.261-5.238-4.795 0-2.636 2.157-4.758 5.238-4.758C-2.329-.822-1.165-.479 0 0m4.485 10.169v-14.86c0-5.102-3.081-8.081-8.012-8.115l-.651 4.211C-1.234-8.834 0-7.773 0-4.691v.239a13.033 13.033 0 0 0-3.63-.514c-5.273 0-9.621 3.938-9.621 8.902 0 4.966 4.348 8.937 9.621 8.937 2.534 0 5.547-.992 7.772-2.567z" style="fill:#342f8f;fill-opacity:1;fill-rule:nonzero;stroke:none" transform="translate(326.508 163.706)"/><path d="M0 0c0 1.336.924 2.295 2.157 2.295 1.301 0 2.226-.959 2.226-2.295 0-1.3-.925-2.259-2.226-2.259C.924-2.259 0-1.3 0 0m-5.513 0c0 1.336.925 2.295 2.157 2.295 1.302 0 2.226-.959 2.226-2.295 0-1.3-.924-2.259-2.226-2.259-1.232 0-2.157.959-2.157 2.259m18.078-4.691v-16.914l-19.653-.034c-4.896 0-7.669 3.013-7.669 7.807 0 3.253 1.267 5.581 3.423 7.498L-7.841-8.8c-1.712-1.608-2.431-3.183-2.431-4.999 0-2.224 1.267-3.662 3.629-3.662H8.08v12.77z" style="fill:#342f8f;fill-opacity:1;fill-rule:nonzero;stroke:none" transform="translate(358.699 180.345)"/><path d="M376.543 184.248h4.452V158.74h-4.452z" style="fill:#342f8f;fill-opacity:1;fill-rule:nonzero;stroke:none"/><path d="M0 0v-3.732h-19.209V0h2.363c-.617 1.062-.993 2.26-.993 3.562 0 4.45 4.108 7.532 9.621 7.532 2.363 0 5.547-.65 7.635-1.541l-1.78-3.834c-1.644.718-3.972 1.232-5.855 1.232-3.183 0-5.136-1.404-5.136-3.389C-13.354 1.507-11.368 0-8.869 0z" style="fill:#342f8f;fill-opacity:1;fill-rule:nonzero;stroke:none" transform="translate(404.485 162.472)"/><path d="M0 0c0-1.267-.206-2.089-.685-2.089h-8.457v25.508h4.451V2.054h4.006C-.206 2.054 0 1.267 0 0" style="fill:#342f8f;fill-opacity:1;fill-rule:nonzero;stroke:none" transform="translate(417.911 160.83)"/><path d="M0 0c0 1.506 1.061 2.567 2.465 2.567 1.438 0 2.499-1.061 2.499-2.567 0-1.473-1.061-2.568-2.499-2.568C1.061-2.568 0-1.473 0 0m.993-19.14h4.314v9.039c-1.13.41-1.986.514-2.842.514-3.013 0-5.205-2.089-5.205-4.966 0-2.293 1.439-4.073 3.733-4.587m13.387-2.054c0-1.267-.206-2.089-.684-2.089H-9.861c-.479 0-.685.822-.685 2.089s.206 2.054.685 2.054h3.938a8.44 8.44 0 0 0-1.302 4.554c0 5.238 4.315 9.141 9.655 9.141 2.603 0 5.205-.924 7.362-2.02V-19.14h3.904c.478 0 .684-.787.684-2.054" style="fill:#342f8f;fill-opacity:1;fill-rule:nonzero;stroke:none" transform="translate(427.09 182.024)"/><path d="M0 0c0-1.267-.206-2.089-.685-2.089h-19.208c-.479 0-.685.822-.685 2.089s.206 2.054.685 2.054h10.375v.274c0 4.828-2.226 7.601-6.198 7.601l-2.773 2.911 9.004 9.141 2.809-2.91-5.411-5.444c4.315-1.369 7.054-5.513 7.054-11.573h4.348C-.206 2.054 0 1.267 0 0" style="fill:#342f8f;fill-opacity:1;fill-rule:nonzero;stroke:none" transform="translate(460.682 160.83)"/><path d="M0 0c0-1.267-.206-2.089-.685-2.089h-10.922c-.48 0-.685.822-.685 2.089s.205 2.054.685 2.054h2.671v21.365h4.484V2.054h3.767C-.206 2.054 0 1.267 0 0" style="fill:#342f8f;fill-opacity:1;fill-rule:nonzero;stroke:none" transform="translate(471.609 160.83)"/><path d="M0 0v-25.508h-7.156c-.479 0-.685.822-.685 2.089s.206 2.054.685 2.054h2.671V0z" style="fill:#342f8f;fill-opacity:1;fill-rule:nonzero;stroke:none" transform="translate(478.082 184.248)"/><path d="M0 0v-1.681h-5.202v-14.218h-1.817v14.218h-5.179V0Z" style="fill:#3d3d3c;fill-opacity:1;fill-rule:nonzero;stroke:none" transform="translate(204.879 137.622)"/><path d="M0 0v-7.359h-1.771v6.905c0 2.135-1.273 3.407-3.385 3.407-2.544-.023-4.043-1.84-4.043-4.452v-5.86h-1.772V9.494h1.772V1.908c.817 1.863 2.453 2.726 4.656 2.748C-1.681 4.656 0 2.907 0 0" style="fill:#3d3d3c;fill-opacity:1;fill-rule:nonzero;stroke:none" transform="translate(217.011 129.082)"/><path d="M0 0c-.114 2.316-1.658 3.815-3.998 3.815-2.294 0-3.93-1.499-4.18-3.815zm1.59-1.409h-9.768c.296-2.362 2-3.906 4.339-3.906 1.476 0 2.771.545 3.703 1.521L.84-4.816c-1.136-1.25-2.817-1.977-4.815-1.977-3.521 0-5.951 2.477-5.951 6.042 0 3.567 2.453 6.02 5.928 6.042 3.862 0 5.769-2.657 5.588-6.7" style="fill:#3d3d3c;fill-opacity:1;fill-rule:nonzero;stroke:none" transform="translate(229.691 128.446)"/><path d="M0 0c-2.044 0-3.385-.841-3.385-2.226 0-4.18 8.95-2 8.927-7.814 0-2.658-2.34-4.384-5.747-4.384-2.316 0-4.588.999-6.087 2.453l.818 1.568c1.476-1.431 3.498-2.249 5.292-2.249 2.294 0 3.725.953 3.725 2.521.023 4.293-8.927 2.021-8.927 7.791 0 2.498 2.204 4.111 5.498 4.111 1.839 0 3.725-.59 5.042-1.476l-.772-1.613C2.953-.387 1.272 0 0 0" style="fill:#3d3d3c;fill-opacity:1;fill-rule:nonzero;stroke:none" transform="translate(244.711 136.01)"/><path d="M0 0c-1 0-1.795.272-2.521.864l.749 1.408c.545-.386 1.09-.568 1.681-.568.931 0 1.704.591 2.181 1.726l.499 1.136-4.952 11.857H-.5l3.975-9.949 3.794 9.949h1.817L3.589 2.772C2.839.954 1.59 0 0 0" style="fill:#3d3d3c;fill-opacity:1;fill-rule:nonzero;stroke:none" transform="translate(253.96 117.247)"/><path d="M0 0v-1.726c-2.521.045-4.089-1.522-4.293-3.93v-6.359h-1.772V-.068h1.772v-2.657C-3.498-.977-2.022-.023 0 0" style="fill:#3d3d3c;fill-opacity:1;fill-rule:nonzero;stroke:none" transform="translate(271.386 133.738)"/><path d="M275.523 121.722h-1.749v11.947h1.749zm.273 15.378c0-.682-.501-1.204-1.159-1.204-.659 0-1.159.522-1.159 1.204 0 .704.5 1.226 1.159 1.226.658 0 1.159-.522 1.159-1.226" style="fill:#3d3d3c;fill-opacity:1;fill-rule:nonzero;stroke:none"/><path d="M0 0v1.454h-3.725C-5.723 1.454-6.768.84-6.768-.5c0-1.318 1.067-2.203 2.748-2.203C-1.999-2.703-.453-1.704 0 0m.024-4.111v1.861C-.93-3.544-2.453-4.18-4.361-4.18c-2.476 0-4.065 1.568-4.065 3.611 0 2.091 1.658 3.407 4.474 3.431h3.929v.75c0 1.748-1.089 2.816-3.202 2.816-1.317 0-2.544-.5-3.794-1.385l-.749 1.249c1.545 1.022 2.839 1.612 4.884 1.612 2.953 0 4.588-1.567 4.611-4.111l.023-7.904Z" style="fill:#3d3d3c;fill-opacity:1;fill-rule:nonzero;stroke:none" transform="translate(287.245 125.834)"/><path d="M0 0v-7.359h-1.771v6.905c0 2.135-1.272 3.407-3.385 3.407-2.362-.023-3.816-1.59-4.021-3.907v-6.405h-1.771V4.588h1.771V1.953c.841 1.818 2.453 2.681 4.634 2.703C-1.681 4.656 0 2.907 0 0" style="fill:#3d3d3c;fill-opacity:1;fill-rule:nonzero;stroke:none" transform="translate(303.9 129.082)"/><path d="M315.445 121.722h-1.817v15.899h1.817z" style="fill:#3d3d3c;fill-opacity:1;fill-rule:nonzero;stroke:none"/><path d="M0 0v-7.359h-1.771v6.905c0 2.135-1.272 3.407-3.385 3.407-2.362-.023-3.816-1.59-4.021-3.907v-6.405h-1.771V4.588h1.771V1.953c.841 1.818 2.453 2.681 4.634 2.703C-1.681 4.656 0 2.907 0 0" style="fill:#3d3d3c;fill-opacity:1;fill-rule:nonzero;stroke:none" transform="translate(330.961 129.082)"/><path d="M336.667 121.722h-1.749v11.947h1.749zm.272 15.378c0-.682-.5-1.204-1.159-1.204-.658 0-1.157.522-1.157 1.204 0 .704.499 1.226 1.157 1.226.659 0 1.159-.522 1.159-1.226" style="fill:#3d3d3c;fill-opacity:1;fill-rule:nonzero;stroke:none"/><path d="M0 0c-.84-.567-1.749-.886-2.703-.886C-4.452-.909-5.746.137-5.746 2.498v6.883h-1.726v1.386h1.726v3.135h1.749v-3.135h3.794V9.381h-3.794V2.794c0-1.453.567-2.045 1.589-2.045.614.023 1.25.228 1.908.614z" style="fill:#3d3d3c;fill-opacity:1;fill-rule:nonzero;stroke:none" transform="translate(347.163 122.54)"/><path d="M351.595 121.722h-1.749v11.947h1.749zm.273 15.378c0-.682-.5-1.204-1.159-1.204-.658 0-1.157.522-1.157 1.204 0 .704.499 1.226 1.157 1.226.659 0 1.159-.522 1.159-1.226" style="fill:#3d3d3c;fill-opacity:1;fill-rule:nonzero;stroke:none"/><path d="M0 0v1.454h-3.725C-5.723 1.454-6.768.84-6.768-.5c0-1.318 1.067-2.203 2.748-2.203C-1.999-2.703-.453-1.704 0 0m.024-4.111v1.861C-.93-3.544-2.453-4.18-4.361-4.18c-2.476 0-4.065 1.568-4.065 3.611 0 2.091 1.658 3.407 4.474 3.431h3.929v.75c0 1.748-1.089 2.816-3.202 2.816-1.317 0-2.543-.5-3.794-1.385l-.749 1.249c1.545 1.022 2.839 1.612 4.884 1.612 2.953 0 4.588-1.567 4.611-4.111l.023-7.904Z" style="fill:#3d3d3c;fill-opacity:1;fill-rule:nonzero;stroke:none" transform="translate(363.317 125.834)"/><path d="M0 0c-.84-.567-1.749-.886-2.703-.886C-4.452-.909-5.746.137-5.746 2.498v6.883h-1.726v1.386h1.726v3.135h1.749v-3.135h3.794V9.381h-3.794V2.794c0-1.453.567-2.045 1.589-2.045.614.023 1.25.228 1.908.614z" style="fill:#3d3d3c;fill-opacity:1;fill-rule:nonzero;stroke:none" transform="translate(375.201 122.54)"/><path d="M379.634 121.722h-1.749v11.947h1.749zm.272 15.378c0-.682-.5-1.204-1.159-1.204-.657 0-1.157.522-1.157 1.204 0 .704.5 1.226 1.157 1.226.659 0 1.159-.522 1.159-1.226" style="fill:#3d3d3c;fill-opacity:1;fill-rule:nonzero;stroke:none"/><path d="m0 0 3.816-10.153L7.61 0h1.794L4.703-11.947H2.862L-1.886 0Z" style="fill:#3d3d3c;fill-opacity:1;fill-rule:nonzero;stroke:none" transform="translate(383.77 133.67)"/><path d="M0 0c-.114 2.316-1.658 3.815-3.998 3.815-2.294 0-3.93-1.499-4.18-3.815zm1.589-1.409h-9.767c.296-2.362 1.999-3.906 4.339-3.906 1.476 0 2.772.545 3.702 1.521L.84-4.816c-1.135-1.25-2.816-1.977-4.815-1.977-3.521 0-5.951 2.477-5.951 6.042 0 3.567 2.453 6.02 5.928 6.042 3.861 0 5.769-2.657 5.587-6.7" style="fill:#3d3d3c;fill-opacity:1;fill-rule:nonzero;stroke:none" transform="translate(403.603 128.446)"/><path d="M0 0v-1.514h3.175v-1.283H0v-9.438h-1.618v9.438h-1.43v1.283h1.43v1.325c0 2.396 1.702 3.721 3.552 3.7a4.543 4.543 0 0 0 1.872-.505l-.4-1.367c-.42.211-.924.4-1.45.4C.884 2.039 0 1.303 0 0" style="fill:#3d3d3c;fill-opacity:1;fill-rule:nonzero;stroke:none" transform="translate(415.557 133.958)"/><path d="M0 0c0-2.48 1.639-4.163 3.973-4.163C6.286-4.163 7.947-2.48 7.947 0c0 2.439-1.661 4.142-3.974 4.142C1.639 4.142 0 2.439 0 0m9.586.021c0-3.3-2.334-5.612-5.613-5.612-3.301 0-5.614 2.312-5.614 5.612 0 3.28 2.313 5.571 5.614 5.571 3.279 0 5.613-2.291 5.613-5.571" style="fill:#3d3d3c;fill-opacity:1;fill-rule:nonzero;stroke:none" transform="translate(420.895 127.25)"/><path d="M0 0v-1.598c-2.333.042-3.784-1.408-3.973-3.636v-5.887h-1.64V-.063h1.64v-2.459C-3.237-.904-1.871-.02 0 0" style="fill:#3d3d3c;fill-opacity:1;fill-rule:nonzero;stroke:none" transform="translate(438.968 132.843)"/><path d="M0 0v-1.556h-8.304v-4.941h7.421v-1.534h-7.421v-5.13H.273v-1.555H-9.986V0Z" style="fill:#3d3d3c;fill-opacity:1;fill-rule:nonzero;stroke:none" transform="translate(205.8 103.464)"/><path d="m0 0 2.943-4.226L5.929 0h1.807l-3.7-5.36 3.974-5.698H6.096L2.943-6.517l-3.259-4.541h-1.85L1.871-5.36-1.892 0Z" style="fill:#3d3d3c;fill-opacity:1;fill-rule:nonzero;stroke:none" transform="translate(209.874 99.806)"/><path d="M0 0c0 2.397-1.64 4.163-3.953 4.163-2.333 0-3.973-1.746-3.973-4.163 0-2.439 1.64-4.163 3.973-4.163C-1.64-4.163 0-2.417 0 0m1.661-.042c0-3.279-2.145-5.571-5.277-5.571-1.976 0-3.49.904-4.31 2.439v-6.455h-1.64V5.508h1.64V3.132c.82 1.535 2.334 2.439 4.268 2.439 3.132 0 5.319-2.313 5.319-5.613" style="fill:#3d3d3c;fill-opacity:1;fill-rule:nonzero;stroke:none" transform="translate(230.05 94.298)"/><path d="M0 0c-.105 2.144-1.535 3.532-3.7 3.532-2.124 0-3.637-1.388-3.868-3.532Zm1.472-1.304h-9.04C-7.295-3.49-5.719-4.92-3.553-4.92c1.366 0 2.565.505 3.427 1.408l.903-.946C-.274-5.614-1.829-6.286-3.679-6.286c-3.259 0-5.509 2.291-5.509 5.591 0 3.301 2.271 5.572 5.488 5.593 3.574 0 5.339-2.459 5.172-6.202" style="fill:#3d3d3c;fill-opacity:1;fill-rule:nonzero;stroke:none" transform="translate(242.658 94.971)"/><path d="M0 0v-1.598c-2.333.042-3.784-1.408-3.973-3.636v-5.887h-1.64V-.063h1.64v-2.459C-3.237-.904-1.871-.02 0 0" style="fill:#3d3d3c;fill-opacity:1;fill-rule:nonzero;stroke:none" transform="translate(252.554 99.869)"/><path d="M0 0c-.778-.526-1.618-.82-2.502-.82-1.618-.021-2.817.946-2.817 3.133v6.369h-1.598v1.282h1.598v2.902H-3.7V9.964h3.511V8.682H-3.7V2.586c0-1.345.525-1.892 1.472-1.892.567.021 1.156.21 1.766.567z" style="fill:#3d3d3c;fill-opacity:1;fill-rule:nonzero;stroke:none" transform="translate(260.476 89.505)"/><path d="M264.572 88.748h-1.618v11.058h1.618zm.252 14.233c0-.632-.462-1.115-1.071-1.115-.61 0-1.073.483-1.073 1.115 0 .651.463 1.135 1.073 1.135.609 0 1.071-.484 1.071-1.135" style="fill:#3d3d3c;fill-opacity:1;fill-rule:nonzero;stroke:none"/><path d="M0 0c-1.24 0-2.187-.443-2.187-1.493 0-2.502 6.181-1.219 6.181-5.193 0-2.165-1.934-3.132-4.057-3.132-1.577 0-3.195.546-4.246 1.555l.63 1.199C-2.733-7.947-1.303-8.473 0-8.473s2.355.505 2.376 1.618c.063 2.691-6.139 1.326-6.118 5.236 0 2.102 1.829 3.006 3.847 3.006 1.324 0 2.607-.4 3.532-1.009L3.006-.884C2.144-.337 1.03 0 0 0" style="fill:#3d3d3c;fill-opacity:1;fill-rule:nonzero;stroke:none" transform="translate(271.402 98.503)"/><path d="M0 0c-.106 2.144-1.535 3.532-3.7 3.532-2.123 0-3.638-1.388-3.868-3.532Zm1.472-1.304h-9.04C-7.295-3.49-5.719-4.92-3.553-4.92c1.366 0 2.564.505 3.427 1.408l.904-.946C-.274-5.614-1.83-6.286-3.68-6.286c-3.258 0-5.508 2.291-5.508 5.591 0 3.301 2.271 5.572 5.488 5.593 3.574 0 5.339-2.459 5.172-6.202" style="fill:#3d3d3c;fill-opacity:1;fill-rule:nonzero;stroke:none" transform="translate(286.156 94.971)"/><path d="M0 0v1.345h-3.448c-1.849 0-2.817-.567-2.817-1.807 0-1.219.988-2.04 2.544-2.04C-1.85-2.502-.421-1.576 0 0m.021-3.804v1.723c-.883-1.198-2.292-1.786-4.057-1.786-2.292 0-3.763 1.45-3.763 3.342 0 1.934 1.534 3.153 4.141 3.174h3.637v.694c0 1.619-1.009 2.608-2.965 2.608-1.219 0-2.354-.463-3.511-1.283l-.693 1.155c1.43.947 2.628 1.493 4.52 1.493 2.733 0 4.246-1.45 4.268-3.804l.021-7.316z" style="fill:#3d3d3c;fill-opacity:1;fill-rule:nonzero;stroke:none" transform="translate(302.4 92.553)"/><path d="M0 0v-6.811h-1.641V-.42c0 1.976-1.176 3.154-3.132 3.154-2.186-.022-3.532-1.472-3.721-3.617v-5.928h-1.639V4.247h1.639V1.808C-7.716 3.49-6.223 4.29-4.205 4.31-1.556 4.31 0 2.691 0 0" style="fill:#3d3d3c;fill-opacity:1;fill-rule:nonzero;stroke:none" transform="translate(317.805 95.559)"/><path d="M0 0c0 2.439-1.661 4.204-3.995 4.204C-6.349 4.204-8.01 2.439-8.01 0s1.661-4.184 4.015-4.184C-1.661-4.184 0-2.439 0 0m1.639 10.09V-5.508H0v2.376c-.821-1.556-2.334-2.46-4.31-2.46-3.154 0-5.34 2.334-5.34 5.634 0 3.301 2.186 5.592 5.319 5.592 1.976 0 3.51-.904 4.331-2.48v6.936z" style="fill:#3d3d3c;fill-opacity:1;fill-rule:nonzero;stroke:none" transform="translate(329.992 94.256)"/><path d="M0 0c0 3.321-2.606 5.823-5.908 5.823h-4.225V-5.782h4.288C-2.565-5.782 0-3.3 0 0m1.702.021c0-4.184-3.3-7.357-7.631-7.357h-5.886V7.379h5.949c4.289 0 7.568-3.174 7.568-7.358" style="fill:#3d3d3c;fill-opacity:1;fill-rule:nonzero;stroke:none" transform="translate(352.878 96.085)"/><path d="M0 0c-.106 2.144-1.535 3.532-3.7 3.532-2.123 0-3.638-1.388-3.868-3.532Zm1.472-1.304h-9.04C-7.295-3.49-5.719-4.92-3.553-4.92c1.366 0 2.564.505 3.427 1.408l.904-.946C-.274-5.614-1.83-6.286-3.68-6.286c-3.258 0-5.508 2.291-5.508 5.591 0 3.301 2.271 5.572 5.488 5.593 3.574 0 5.339-2.459 5.172-6.202" style="fill:#3d3d3c;fill-opacity:1;fill-rule:nonzero;stroke:none" transform="translate(365.484 94.971)"/><path d="m0 0 3.532-9.397L7.044 0h1.66L4.353-11.058H2.649L-1.744 0Z" style="fill:#3d3d3c;fill-opacity:1;fill-rule:nonzero;stroke:none" transform="translate(369.241 99.806)"/><path d="M0 0c-.106 2.144-1.535 3.532-3.7 3.532-2.123 0-3.638-1.388-3.868-3.532Zm1.472-1.304h-9.04C-7.295-3.49-5.719-4.92-3.553-4.92c1.366 0 2.564.505 3.427 1.408l.904-.946C-.274-5.614-1.83-6.286-3.68-6.286c-3.258 0-5.508 2.291-5.508 5.591 0 3.301 2.271 5.572 5.488 5.593 3.574 0 5.339-2.459 5.172-6.202" style="fill:#3d3d3c;fill-opacity:1;fill-rule:nonzero;stroke:none" transform="translate(387.59 94.971)"/><path d="M393.619 88.748h-1.641v15.598h1.641z" style="fill:#3d3d3c;fill-opacity:1;fill-rule:nonzero;stroke:none"/><path d="M0 0c0-2.48 1.639-4.163 3.973-4.163C6.286-4.163 7.947-2.48 7.947 0c0 2.439-1.661 4.142-3.974 4.142C1.639 4.142 0 2.439 0 0m9.586.021c0-3.3-2.334-5.612-5.613-5.612-3.301 0-5.614 2.312-5.614 5.612 0 3.28 2.313 5.571 5.614 5.571 3.279 0 5.613-2.291 5.613-5.571" style="fill:#3d3d3c;fill-opacity:1;fill-rule:nonzero;stroke:none" transform="translate(398.24 94.276)"/><path d="M0 0c0 2.397-1.641 4.163-3.952 4.163-2.334 0-3.973-1.746-3.973-4.163 0-2.439 1.639-4.163 3.973-4.163C-1.641-4.163 0-2.417 0 0m1.661-.042c0-3.279-2.145-5.571-5.277-5.571-1.976 0-3.49.904-4.309 2.439v-6.455h-1.641V5.508h1.641V3.132c.819 1.535 2.333 2.439 4.267 2.439 3.132 0 5.319-2.313 5.319-5.613" style="fill:#3d3d3c;fill-opacity:1;fill-rule:nonzero;stroke:none" transform="translate(420.373 94.298)"/><path d="M0 0v-6.811h-1.639V-.42c0 1.997-1.157 3.174-3.07 3.174-2.292-.063-3.616-1.724-3.616-4.12v-5.445h-1.661V-.42c0 1.997-1.135 3.174-3.069 3.174-2.271-.063-3.637-1.724-3.637-4.12v-5.445h-1.619V4.247h1.619V1.745c.736 1.724 2.228 2.545 4.226 2.565 2.081 0 3.51-1.05 3.973-2.88.694 1.934 2.249 2.86 4.372 2.88C-1.535 4.31 0 2.691 0 0" style="fill:#3d3d3c;fill-opacity:1;fill-rule:nonzero;stroke:none" transform="translate(443.218 95.559)"/><path d="M0 0c-.106 2.144-1.535 3.532-3.7 3.532-2.123 0-3.638-1.388-3.868-3.532Zm1.472-1.304h-9.04C-7.295-3.49-5.719-4.92-3.553-4.92c1.366 0 2.564.505 3.427 1.408l.904-.946C-.274-5.614-1.83-6.286-3.68-6.286c-3.258 0-5.508 2.291-5.508 5.591 0 3.301 2.271 5.572 5.488 5.593 3.574 0 5.339-2.459 5.172-6.202" style="fill:#3d3d3c;fill-opacity:1;fill-rule:nonzero;stroke:none" transform="translate(454.918 94.971)"/><path d="M0 0v-6.811h-1.641V-.42c0 1.976-1.176 3.154-3.132 3.154-2.186-.022-3.532-1.472-3.721-3.617v-5.928h-1.639V4.247h1.639V1.808C-7.716 3.49-6.223 4.29-4.205 4.31-1.556 4.31 0 2.691 0 0" style="fill:#3d3d3c;fill-opacity:1;fill-rule:nonzero;stroke:none" transform="translate(469.335 95.559)"/><path d="M0 0c-.778-.526-1.619-.82-2.502-.82-1.619-.021-2.817.946-2.817 3.133v6.369h-1.598v1.282h1.598v2.902h1.618V9.964h3.512V8.682h-3.512V2.586c0-1.345.526-1.892 1.472-1.892.568.021 1.156.21 1.766.567z" style="fill:#3d3d3c;fill-opacity:1;fill-rule:nonzero;stroke:none" transform="translate(478.706 89.505)"/></g><path d="M35.557 262.566V66.049c0-1.425.718-2.668 1.803-3.399a4.157 4.157 0 0 1 2.923-.645l6.127.962v130.248c0 3.094 1.463 7.711 3.034 11.56v60.36l-3.034.488-6.127.975a4.081 4.081 0 0 1-4.726-4.032" style="fill:url(#i);stroke:none" transform="matrix(1.33333 0 0 -1.33333 0 426.667)"/></svg>